<svg xmlns="http://www.w3.org/2000/svg" xmlns:xlink="http://www.w3.org/1999/xlink" xmlns:inkscape="http://www.inkscape.org/namespaces/inkscape" version="1.1" width="728.5" height="221.5" viewBox="0 0 728.5 221.5">
<g transform="translate(-56.5 -186.5)">

<defs>
<clipPath id="clip_1">
<path transform="matrix(1,0,0,-1,0,595.276)" d="M0 595.276H841.89V0H0Z"/>
</clipPath>
</defs>
<g inkscape:groupmode="layer" inkscape:label="&#x0421;&#x043B;&#x043E;&#x0439; 1">
<g clip-path="url(#clip_1)">
<path transform="matrix(1,0,0,-1,167.381,186.9256)" d="M0 0V0C-60.585 0-109.775-48.659-110.678-109.017-101.105-89.662-88.255-77.239-76.191-67.482-58.14-52.881-36.41-45.828-16.28-44.574 5.777-43.201 23.053-47.846 37.189-59.05 42.293-63.095 46.38-67.877 49.613-73.02 55.602-82.543 58.375-93.663 57.368-105.985 55.198-132.527 33.39-153.87 6.804-155.519-24.699-157.473-50.859-132.506-50.859-101.431-50.859-87.238-45.395-74.325-36.465-64.663-46.559-67.782-56.643-72.841-65.837-80.278-74.971-87.666-85.145-97.851-93.512-111.315-102.647-126.015-106.433-143.045-106.537-160.35V-221.399H0C61.15-221.399 110.721-171.838 110.721-110.7V-110.699C110.721-49.561 61.15 0 0 0" fill="#a91d7a"/>
<path transform="matrix(1,0,0,-1,484.762,262.1775)" d="M0 0H-51.44L-106.801-52.162V41.158H-144.053V-144.054H-106.801V-91.887L-51.433-144.054H3.854L-76.443-72.024Z" fill="#a91d7a"/>
<path transform="matrix(1,0,0,-1,0,595.276)" d="M744.002 189.045H781.255V314.95503H744.002Z" fill="#a91d7a"/>
<path transform="matrix(1,0,0,-1,550.4052,371.5924)" d="M0 0C-20.818 0-37.694 16.739-37.694 37.388-37.694 58.037-20.818 74.776 0 74.776 20.818 74.776 37.694 58.037 37.694 37.388 37.694 16.739 20.818 0 0 0M37.738 101.384C26.659 107.826 13.769 111.534 0 111.534-41.285 111.534-74.753 78.338-74.753 37.388-74.753-3.562-41.285-36.758 0-36.758 13.769-36.758 26.659-33.05 37.738-26.609V-34.639H74.99V109.415H37.738Z" fill="#a91d7a"/>
<path transform="matrix(1,0,0,-1,762.6282,267.7195)" d="M0 0C12.459 0 22.559 10.1 22.559 22.559 22.559 28.064 20.582 33.104 17.306 37.02 15.132 39.862 12.219 42.197 8.653 43.858-2.579 49.086-18.377 47.019-33.605 38.323-49.001 29.531-61.329 13.083-68.67-6.989V5.542H-105.923V-138.512H-68.67V-37.268C-65.411-6.761-50.524 20.852-30.241 32.433-25.463 35.163-20.667 37.153-16.051 38.402-20.072 34.327-22.559 28.736-22.559 22.559-22.559 10.1-12.459 0 0 0" fill="#a91d7a"/>
</g>
</g>

</g>
</svg>
